name C:\Users\u0101727\Documents\MyRepositories\paper-ad\trackingsimulations_3d\Results\TrackSim\IK_c16.mot
datacolumns 32
datarows 14
range 3.45000000 3.65800000
endheader
time	pelvis_tilt	pelvis_list	pelvis_rotation	pelvis_tx	pelvis_ty	pelvis_tz	hip_flexion_l	hip_adduction_l	hip_rotation_l	hip_flexion_r	hip_adduction_r	hip_rotation_r	knee_angle_l	knee_angle_r	ankle_angle_l	ankle_angle_r	subtalar_angle_l	subtalar_angle_r	lumbar_extension	lumbar_bending	lumbar_rotation	arm_flex_l	arm_add_l	arm_rot_l	arm_flex_r	arm_add_r	arm_rot_r	elbow_flex_l	elbow_flex_r	pro_sup_l	pro_sup_r	
          3.45000000	         -2.16684763	          4.38562277	          4.40266719	         -0.50766247	          0.94265610	         -0.23002466	         15.03852014	          9.17699244	          3.45846459	         13.63121304	         -1.81964028	         -2.18160233	        -22.13099950	        -65.08375476	          5.23677580	        -12.89996052	          5.74607724	        -13.57139684	         -4.51903909	         -4.06600613	         -3.34136903	         -1.83157353	        -15.69950280	         17.87139583	         -4.80777775	        -16.91029061	         12.14118598	         21.28662540	         23.55106994	         86.51662706	         86.51662706	
          3.46600000	         -2.19520479	          4.17117399	          4.34644531	         -0.48936635	          0.94554419	         -0.23059029	         13.64187736	          8.93071748	          3.80409941	         16.81669937	         -1.90149236	         -2.03572012	        -21.98359789	        -66.35119913	          6.88262882	        -10.76208651	          5.94722289	        -12.84335124	         -4.69701302	         -3.91805583	         -3.83128806	         -1.63270492	        -15.90542609	         17.29306756	         -5.00367011	        -16.82618892	         12.39704418	         22.62915653	         23.04811247	         86.51662706	         86.51662706	
          3.48200000	         -2.17293712	          3.88830805	          4.28298662	         -0.47097863	          0.94822226	         -0.23109275	         12.12962653	          8.59449242	          4.12847377	         19.72471229	         -1.90504418	         -1.95304749	        -21.64025091	        -66.63398410	          8.04980998	         -8.85183168	          6.01639769	        -11.86971781	         -4.88909671	         -3.66652925	         -4.29504180	         -1.42382831	        -16.08898070	         16.78482888	         -5.27385214	        -16.76324127	         12.44593514	         23.94260619	         22.62401633	         86.51662706	         86.51662706	
          3.49800000	         -2.11605258	          3.52076303	          4.32367790	         -0.45248107	          0.95055410	         -0.23170377	         10.55806928	          8.19767128	          4.56514697	         22.29957788	         -1.83574148	         -2.03792118	        -21.18640277	        -65.92480105	          8.77124668	         -7.17489886	          5.85627846	        -10.92634548	         -5.08561782	         -3.28744138	         -4.82696535	         -1.19938467	        -16.25408516	         16.38358511	         -5.63894660	        -16.72100612	         12.19994661	         25.21686392	         22.32717942	         86.51662706	         86.51662706	
          3.51400000	         -2.03707293	          3.10649277	          4.43723924	         -0.43384942	          0.95242358	         -0.23235611	          8.94467701	          7.75688147	          5.05963750	         24.53075127	         -1.73942069	         -2.25888391	        -20.65935838	        -64.28390451	          9.22639037	         -5.58525239	          5.56948037	        -10.19301111	         -5.27724346	         -2.83353265	         -5.39001072	         -0.96551229	        -16.42097425	         16.07950610	         -6.07343414	        -16.68303092	         11.70036637	         26.45946529	         22.11863701	         86.51662706	         86.51662706	
          3.53000000	         -1.94107454	          2.68722020	          4.57913532	         -0.41506288	          0.95374651	         -0.23294955	          7.29217926	          7.28359692	          5.52096846	         26.41146937	         -1.64610738	         -2.56707143	        -20.08500658	        -61.77584422	          9.59870600	         -3.96618985	          5.30314366	         -9.91878419	         -5.46384568	         -2.36421780	         -5.94178661	         -0.72899269	        -16.60649839	         15.84726978	         -6.53327832	        -16.63205107	         11.04601226	         27.66812444	         21.93082932	         86.51662706	         86.51662706	
          3.54600000	         -1.82782431	          2.30179901	          4.72242208	         -0.39608798	          0.95447963	         -0.23343090	          5.58499504	          6.79781956	          5.88535983	         27.92612343	         -1.58425750	         -2.91860428	        -19.45717361	        -58.46990492	          9.98248431	         -2.37665542	          5.16170295	        -10.05929759	         -5.65045201	         -1.93014267	         -6.46253439	         -0.49537741	        -16.81588400	         15.66896977	         -6.98123778	        -16.55738098	         10.33274265	         28.82063369	         21.71076951	         86.51662706	         86.51662706	
          3.56200000	         -1.69782248	          1.97901108	          4.86552277	         -0.37689724	          0.95461517	         -0.23380788	          3.81097273	          6.32606682	          6.14540698	         29.07005527	         -1.58369795	         -3.29377340	        -18.76519847	        -54.47303718	         10.39549645	         -1.20750693	          5.17975001	        -10.27124019	         -5.84150078	         -1.56432362	         -6.95735498	         -0.26557046	        -17.04299656	         15.53902383	         -7.39251435	        -16.45611516	          9.63397604	         29.88098421	         21.42935944	         86.51662706	         86.51662706	
          3.57800000	         -1.55806593	          1.73249035	          5.01932963	         -0.35748377	          0.95417019	         -0.23411614	          1.97901477	          5.89168279	          6.33521660	         29.86210790	         -1.66544207	         -3.72206214	        -18.01662917	        -49.89498867	         10.81812269	         -0.87731898	          5.33197020	        -10.38820801	         -6.03424217	         -1.27993282	         -7.43694333	         -0.03413504	        -17.27362551	         15.46104863	         -7.75240229	        -16.33131855	          9.00422388	         30.81013850	         21.07263974	         86.51662706	         86.51662706	
          3.59400000	         -1.41862633	          1.57100804	          5.18116993	         -0.33785224	          0.95317675	         -0.23437178	          0.11266404	          5.51851405	          6.50282562	         30.34334572	         -1.83169397	         -4.21410204	        -17.23654784	        -44.85820262	         11.21588592	         -1.22928142	          5.55145612	        -10.06664344	         -6.22186683	         -1.08535249	         -7.89110741	          0.20954226	        -17.49049976	         15.44202870	         -8.05239531	        -16.18825986	          8.48551239	         31.57144546	         20.63087908	         86.51662706	         86.51662706	
          3.61000000	         -1.28940429	          1.49009529	          5.34238373	         -0.31800163	          0.95167776	         -0.23456268	         -1.75530433	          5.21427598	          6.69555280	         30.56234033	         -2.05466897	         -4.78189385	        -16.46643640	        -39.48946820	         11.56274003	         -1.57961499	          5.77421065	         -9.30037037	         -6.39455388	         -0.97631682	         -8.29617944	          0.47737359	        -17.67644898	         15.49049826	         -8.29041911	        -16.03215834	          8.10901079	         32.13325797	         20.09365192	         86.51662706	         86.51662706	
          3.62600000	         -1.17717087	          1.47977265	          5.51551177	         -0.29792264	          0.94974373	         -0.23470132	         -3.58911472	          4.97864944	          6.97515612	         30.55830938	         -2.32243551	         -5.47405768	        -15.75861597	        -33.88261996	         11.83278640	         -1.35313483	          5.93709130	         -8.02485254	         -6.54351986	         -0.94100935	         -8.64566740	          0.77954610	        -17.81676145	         15.61754635	         -8.47086192	        -15.86666237	          7.89754040	         32.47006090	         19.45171814	         86.51662706	         86.51662706	
          3.64200000	         -1.08526922	          1.52268525	          5.71612565	         -0.27759570	          0.94746564	         -0.23479462	         -5.35631965	          4.79313576	          7.33937461	         30.38028441	         -2.62690702	         -6.35025336	        -15.16296231	        -28.18304156	         12.01248544	         -0.76368328	          6.03484366	         -6.18175750	         -6.66130581	         -0.95893040	         -8.94456961	          1.11526647	        -17.90279085	         15.83356299	         -8.59877895	        -15.69440944	          7.86496355	         32.56914448	         18.70349787	         86.51662706	         86.51662706	
          3.65800000	         -1.00699564	          1.59600761	          5.93341456	         -0.25696740	          0.94493708	         -0.23478875	         -7.04171420	          4.62328341	          7.70713204	         30.08901778	         -2.92689344	         -7.41671026	        -14.71867666	        -22.68094159	         12.10572724	         -0.14183731	          6.12860209	         -3.95819761	         -6.74732922	         -1.00677366	         -9.18389841	          1.46722751	        -17.93440038	         16.13871438	         -8.68021150	        -15.51687092	          8.01566639	         32.43622904	         17.85909373	         86.51662706	         86.51662706	
